<?xml version="1.0" encoding="utf-8"?>
<svg id="Layer_1" data-name="Layer 1" xmlns="http://www.w3.org/2000/svg" viewBox="399.861 328.244 1150.119 441.416">
  <defs>
    <style>.cls-1{fill:#662d91;}</style>
  </defs>
  <path d="M955.25,717.68a11.48,11.48,0,0,1-3.71-3v3.08h-5.33V677.11h5.5v16.83a9.4,9.4,0,0,1,3.66-2.52,11.83,11.83,0,0,1,4.52-.86,9.62,9.62,0,0,1,5.7,1.79,11.9,11.9,0,0,1,3.93,5,19.66,19.66,0,0,1,0,14.66,11.46,11.46,0,0,1-3.93,4.89,9.78,9.78,0,0,1-5.7,1.74A10.73,10.73,0,0,1,955.25,717.68Zm8.12-6.91a9.42,9.42,0,0,0,1.93-6.16,9.63,9.63,0,0,0-1.93-6.19,6,6,0,0,0-4.89-2.42,6.18,6.18,0,0,0-4.21,1.62,8.31,8.31,0,0,0-2.56,4.32v5.34a8.54,8.54,0,0,0,2.58,4.29,6.22,6.22,0,0,0,4.19,1.59,6,6,0,0,0,4.89-2.39Z" style="fill: rgb(255, 255, 255);"/>
  <path d="M976,715.7a12.74,12.74,0,0,1-2.1-7.68V691.36h5.51v16c0,3.86,1.42,5.78,4.27,5.78a6.16,6.16,0,0,0,3.54-1.13,8.76,8.76,0,0,0,2.8-3.38V691.36h5.5v26.4h-5.33v-3.57a9.64,9.64,0,0,1-3.54,3.32,9.19,9.19,0,0,1-4.32,1.08A7.34,7.34,0,0,1,976,715.7Z" style="fill: rgb(255, 255, 255);"/>
  <path d="M1004.12,717.93a10.86,10.86,0,0,1-4-1.82v-5.88a15.14,15.14,0,0,0,8.52,2.91,7.5,7.5,0,0,0,3-.47,1.75,1.75,0,0,0,1-1.73,2.48,2.48,0,0,0-.5-1.62,4.43,4.43,0,0,0-1.61-1.16,35.44,35.44,0,0,0-3.43-1.29,19.44,19.44,0,0,1-4.13-1.93,6.43,6.43,0,0,1-2.27-2.5,8.58,8.58,0,0,1-.76-3.93,7.19,7.19,0,0,1,2.49-6,10.36,10.36,0,0,1,6.72-2,18.3,18.3,0,0,1,4.35.53,9,9,0,0,1,3.38,1.46v5.66a10.48,10.48,0,0,0-3.19-1.59,12.24,12.24,0,0,0-3.84-.61,7.73,7.73,0,0,0-3.23.52,2,2,0,0,0-1.09,2,2.09,2.09,0,0,0,.59,1.57,5.28,5.28,0,0,0,1.55,1c.64.27,1.8.69,3.49,1.24a16.79,16.79,0,0,1,4.24,2,6.37,6.37,0,0,1,2.18,2.64,9.94,9.94,0,0,1,.65,3.85,7.16,7.16,0,0,1-2.38,5.64c-1.58,1.41-3.88,2.12-6.87,2.12A19.91,19.91,0,0,1,1004.12,717.93Z" style="fill: rgb(255, 255, 255);"/>
  <path d="M1023.49,685.64a4.16,4.16,0,0,1-.9-2.75,4.29,4.29,0,0,1,.9-2.78,2.71,2.71,0,0,1,2.2-1.13,2.77,2.77,0,0,1,2.23,1.13,4.29,4.29,0,0,1,.92,2.78,4.21,4.21,0,0,1-.92,2.75,2.82,2.82,0,0,1-2.23,1.1A2.75,2.75,0,0,1,1023.49,685.64Zm-.59,5.72h5.59v26.4h-5.59Z" style="fill: rgb(255, 255, 255);"/>
  <path d="M1034.08,691.36h5.29v3.58a9.43,9.43,0,0,1,3.54-3.33,9.16,9.16,0,0,1,4.32-1.08,7.33,7.33,0,0,1,6.34,2.89,12.87,12.87,0,0,1,2.09,7.68v16.66h-5.5v-16c0-3.86-1.43-5.78-4.28-5.78a6.21,6.21,0,0,0-3.54,1.13,8.56,8.56,0,0,0-2.79,3.38v17.27h-5.5Z" style="fill: rgb(255, 255, 255);"/>
  <path d="M1063.25,714.9c-2.27-2.46-3.41-5.88-3.41-10.29s1-7.75,3-10.28,4.88-3.8,8.61-3.8a10.54,10.54,0,0,1,10.17,6.58,17.49,17.49,0,0,1,1.31,7v3.19h-17.86q.57,5.88,8.12,5.88a20.28,20.28,0,0,0,4.11-.44,15.8,15.8,0,0,0,3.67-1.21v5.33a15.18,15.18,0,0,1-3.82,1.27,22.16,22.16,0,0,1-4.66.5A12,12,0,0,1,1063.25,714.9Zm14.5-12.38a6.92,6.92,0,0,0-1.77-4.83,6.18,6.18,0,0,0-4.61-1.71,5.92,5.92,0,0,0-4.54,1.76,7,7,0,0,0-1.75,4.78Z" style="fill: rgb(255, 255, 255);"/>
  <path d="M1090.63,717.93a10.86,10.86,0,0,1-4-1.82v-5.88a15.14,15.14,0,0,0,8.52,2.91,7.5,7.5,0,0,0,3-.47,1.75,1.75,0,0,0,1-1.73,2.48,2.48,0,0,0-.5-1.62,4.43,4.43,0,0,0-1.61-1.16,35.44,35.44,0,0,0-3.43-1.29,19,19,0,0,1-4.13-1.93,6.43,6.43,0,0,1-2.27-2.5,8.58,8.58,0,0,1-.76-3.93,7.21,7.21,0,0,1,2.48-6,10.39,10.39,0,0,1,6.73-2,18.16,18.16,0,0,1,4.34.53,9,9,0,0,1,3.39,1.46v5.66a10.48,10.48,0,0,0-3.19-1.59,12.24,12.24,0,0,0-3.84-.61,7.73,7.73,0,0,0-3.23.52,2,2,0,0,0-1.09,2,2.12,2.12,0,0,0,.58,1.57,5.28,5.28,0,0,0,1.55,1c.64.27,1.81.69,3.5,1.24a16.72,16.72,0,0,1,4.23,2,6.26,6.26,0,0,1,2.19,2.64,9.94,9.94,0,0,1,.65,3.85,7.16,7.16,0,0,1-2.38,5.64c-1.58,1.41-3.88,2.12-6.87,2.12A19.91,19.91,0,0,1,1090.63,717.93Z" style="fill: rgb(255, 255, 255);"/>
  <path d="M1111.37,717.93a10.86,10.86,0,0,1-4-1.82v-5.88a15.14,15.14,0,0,0,8.52,2.91,7.5,7.5,0,0,0,3-.47,1.75,1.75,0,0,0,1-1.73,2.48,2.48,0,0,0-.5-1.62,4.43,4.43,0,0,0-1.61-1.16,35.44,35.44,0,0,0-3.43-1.29,19,19,0,0,1-4.13-1.93,6.43,6.43,0,0,1-2.27-2.5,8.58,8.58,0,0,1-.76-3.93,7.21,7.21,0,0,1,2.48-6,10.39,10.39,0,0,1,6.73-2,18.3,18.3,0,0,1,4.35.53,9,9,0,0,1,3.38,1.46v5.66a10.48,10.48,0,0,0-3.19-1.59,12.24,12.24,0,0,0-3.84-.61,7.73,7.73,0,0,0-3.23.52,2,2,0,0,0-1.09,2,2.12,2.12,0,0,0,.58,1.57,5.2,5.2,0,0,0,1.56,1c.63.27,1.8.69,3.49,1.24a16.56,16.56,0,0,1,4.23,2,6.26,6.26,0,0,1,2.19,2.64,9.94,9.94,0,0,1,.65,3.85,7.16,7.16,0,0,1-2.38,5.64c-1.58,1.41-3.88,2.12-6.87,2.12A19.91,19.91,0,0,1,1111.37,717.93Z" style="fill: rgb(255, 255, 255);"/>
  <path d="M1148.84,717.93a10.86,10.86,0,0,1-4-1.82v-5.88a15.14,15.14,0,0,0,8.52,2.91,7.5,7.5,0,0,0,3-.47,1.75,1.75,0,0,0,1-1.73,2.54,2.54,0,0,0-.51-1.62,4.43,4.43,0,0,0-1.61-1.16,35.44,35.44,0,0,0-3.43-1.29,19.44,19.44,0,0,1-4.13-1.93,6.51,6.51,0,0,1-2.31-2.52,8.58,8.58,0,0,1-.76-3.93,7.19,7.19,0,0,1,2.49-6,10.36,10.36,0,0,1,6.72-2,18.3,18.3,0,0,1,4.35.53,9,9,0,0,1,3.38,1.46v5.66a10.48,10.48,0,0,0-3.19-1.59,12.24,12.24,0,0,0-3.84-.61,7.73,7.73,0,0,0-3.23.52,2,2,0,0,0-1.09,2,2.09,2.09,0,0,0,.59,1.57,5.28,5.28,0,0,0,1.55,1c.64.27,1.8.69,3.49,1.24a16.63,16.63,0,0,1,4.24,2,6.37,6.37,0,0,1,2.18,2.64,9.92,9.92,0,0,1,.66,3.85,7.22,7.22,0,0,1-2.38,5.64q-2.4,2.11-6.88,2.12A20,20,0,0,1,1148.84,717.93Z" style="fill: rgb(255, 255, 255);"/>
  <path d="M1171.61,716.91a11.14,11.14,0,0,1-4.3-4.84,19,19,0,0,1,0-14.91,11.2,11.2,0,0,1,4.3-4.89,12.84,12.84,0,0,1,12.91,0,11.51,11.51,0,0,1,4.3,4.89,16.86,16.86,0,0,1,1.53,7.4,17.2,17.2,0,0,1-1.53,7.51,11.2,11.2,0,0,1-4.3,4.84,13.2,13.2,0,0,1-12.89,0Zm11.25-6.16a11.86,11.86,0,0,0,0-12.49,6.24,6.24,0,0,0-8.8-.85,5.69,5.69,0,0,0-.85.85,11.82,11.82,0,0,0,0,12.49,6,6,0,0,0,9.61,0Z" style="fill: rgb(255, 255, 255);"/>
  <path d="M1194.69,677.11h5.51v40.65h-5.51Z" style="fill: rgb(255, 255, 255);"/>
  <path d="M1207.31,715.7a12.74,12.74,0,0,1-2.09-7.68V691.36h5.5v16c0,3.86,1.43,5.78,4.28,5.78a6.23,6.23,0,0,0,3.54-1.13,8.81,8.81,0,0,0,2.79-3.38V691.36h5.5v26.4h-5.32v-3.57a9.64,9.64,0,0,1-3.54,3.32,9.19,9.19,0,0,1-4.32,1.08A7.34,7.34,0,0,1,1207.31,715.7Z" style="fill: rgb(255, 255, 255);"/>
  <path d="M1235.26,716.16a11.24,11.24,0,0,1-1.79-6.81V696.64h-3.1v-5.28h3.14v-7.94h5.5v7.92h5v5.28h-5v11.83a6.52,6.52,0,0,0,.75,3.6,3,3,0,0,0,2.7,1.07,5.27,5.27,0,0,0,2.67-.77v5.28a10.38,10.38,0,0,1-4.59.94A6.1,6.1,0,0,1,1235.26,716.16Z" style="fill: rgb(255, 255, 255);"/>
  <path d="M1249.91,685.64a4.22,4.22,0,0,1-.89-2.75,4.36,4.36,0,0,1,.89-2.78,2.72,2.72,0,0,1,2.21-1.13,2.81,2.81,0,0,1,2.23,1.13,4.29,4.29,0,0,1,.91,2.78,4.2,4.2,0,0,1-.91,2.75,2.84,2.84,0,0,1-2.23,1.1A2.77,2.77,0,0,1,1249.91,685.64Zm-.59,5.72h5.59v26.4h-5.54Z" style="fill: rgb(255, 255, 255);"/>
  <path d="M1265.46,716.91a11.14,11.14,0,0,1-4.3-4.84,19,19,0,0,1,0-14.91,11.2,11.2,0,0,1,4.3-4.89,12.82,12.82,0,0,1,12.9,0,11.51,11.51,0,0,1,4.3,4.89,16.86,16.86,0,0,1,1.53,7.4,17.2,17.2,0,0,1-1.53,7.51,11.2,11.2,0,0,1-4.3,4.84,13.18,13.18,0,0,1-12.88,0Zm11.24-6.16a11.9,11.9,0,0,0,0-12.49,6.26,6.26,0,0,0-9.66,0,11.86,11.86,0,0,0,0,12.49,6,6,0,0,0,8.4,1.2,6.2,6.2,0,0,0,1.2-1.2Z" style="fill: rgb(255, 255, 255);"/>
  <path d="M1288.54,691.36h5.33v3.58a9.48,9.48,0,0,1,3.53-3.33,9.2,9.2,0,0,1,4.33-1.08,7.34,7.34,0,0,1,6.33,2.89,12.81,12.81,0,0,1,2.1,7.68v16.66h-5.51v-16c0-3.86-1.42-5.78-4.28-5.78a6.1,6.1,0,0,0-3.53,1.13,8.67,8.67,0,0,0-2.8,3.38v17.27h-5.5Z" style="fill: rgb(255, 255, 255);"/>
  <path d="M1318.5,717.93a10.86,10.86,0,0,1-4-1.82v-5.88a13.55,13.55,0,0,0,4.06,2.11,13.77,13.77,0,0,0,4.45.8,7.44,7.44,0,0,0,3.06-.47,1.75,1.75,0,0,0,1-1.73,2.62,2.62,0,0,0-.5-1.62,4.55,4.55,0,0,0-1.62-1.16,35.26,35.26,0,0,0-3.42-1.29,19,19,0,0,1-4.13-1.93,6.43,6.43,0,0,1-2.27-2.5,8.72,8.72,0,0,1-.77-3.93,7.19,7.19,0,0,1,2.49-6,10.39,10.39,0,0,1,6.73-2,18.16,18.16,0,0,1,4.34.53,9.15,9.15,0,0,1,3.39,1.46v5.66a10.71,10.71,0,0,0-3.19-1.59,12.24,12.24,0,0,0-3.84-.61,7.73,7.73,0,0,0-3.23.52,2,2,0,0,0-1.1,2,2.09,2.09,0,0,0,.59,1.57,5.28,5.28,0,0,0,1.55,1c.64.27,1.81.69,3.5,1.24a16.72,16.72,0,0,1,4.23,2,6.26,6.26,0,0,1,2.19,2.64,9.94,9.94,0,0,1,.65,3.85,7.16,7.16,0,0,1-2.38,5.64q-2.38,2.12-6.88,2.12A20.24,20.24,0,0,1,1318.5,717.93Z" style="fill: rgb(255, 255, 255);"/>
  <path d="M1023.12,361.36V642.14H962.93V623.29c-13.24,15.24-32.89,24.46-59.77,24.46-52.54,0-95.86-46.12-95.86-105.89S850.62,436,903.16,436c26.88,0,46.53,9.23,59.77,24.47V361.36Zm-60.19,180.5c0-30.08-20.06-48.93-47.73-48.93s-47.74,18.85-47.74,48.93,20.06,48.94,47.74,48.94S962.93,572,962.93,541.86Z" style="fill: rgb(255, 255, 255);"/>
  <path d="M1188.78,642.14l-37.3-53-37.31,53h-69L1117,540.26l-69.39-98.67h69l34.9,49.73,34.89-49.73h69l-69.44,98.67,71.8,101.88Z" style="fill: rgb(255, 255, 255);"/>
  <path d="M1471.57,441.59V642.14H1411.4V623.29c-13.24,15.24-32.89,24.46-59.76,24.46-52.55,0-95.87-46.12-95.87-105.89S1299.09,436,1351.64,436c26.87,0,46.52,9.23,59.76,24.47V441.59ZM1411.4,541.86c0-30.08-20-48.93-47.73-48.93s-47.74,18.85-47.74,48.93,20,48.94,47.73,48.94S1411.4,572,1411.4,541.86Z" style="fill: rgb(255, 255, 255);"/>
  <path class="cls-1" d="M448.44,651V599.34c74.65-15.92,95.17-55.69,100.33-106.92V492H448.43V439.42H600.31C614.55,546.07,567.3,638,448.44,651Z"/>
  <path class="cls-1" d="M742.23,438.85v51.69c-74.66,15.93-95.18,55.68-100.34,106.88v.47H742.23v52.55H590.35C576.15,543.81,623.37,451.84,742.23,438.85Z"/>
</svg>